<?xml version="1.0" encoding="UTF-8" standalone="no"?>
<!DOCTYPE svg PUBLIC "-//W3C//DTD SVG 1.1//EN" "http://www.w3.org/Graphics/SVG/1.1/DTD/svg11.dtd">
<svg width="100%" height="100%" viewBox="0 0 907 535" version="1.1" xmlns="http://www.w3.org/2000/svg" xmlns:xlink="http://www.w3.org/1999/xlink" xml:space="preserve" style="fill-rule:evenodd;clip-rule:evenodd;stroke-linejoin:round;stroke-miterlimit:1.41421;">
    <g transform="matrix(1,0,0,1,-758.156,-558.938)">
        <g transform="matrix(1.05833,0,0,1.05833,-90.9174,-29.6808)">
            <g transform="matrix(0.944884,0,0,0.944884,85.9064,28.0449)">
                <g transform="matrix(1.24102,0,0,1.24102,-114.527,-320.526)">
                    <path d="M1133.18,888.491C1132.6,890.507 1132.02,892.235 1129.72,897.995L1129.72,897.707C1128.57,901.163 1126.84,904.619 1125.69,908.075C1124.54,912.107 1123.38,914.411 1122.52,916.427L1122.52,916.139L1121.37,919.307L1114.74,934.283L1108.12,949.547L1106.39,953.867C1106.39,954.155 1105.82,955.019 1105.82,955.307C1105.53,955.595 1104.09,959.339 1102.36,964.523L1100.92,969.131L1099.77,972.011C1096.89,980.075 1093.14,989.867 1089.98,997.643C1085.37,1006.28 1078.74,1022.99 1075,1032.78C1074.14,1035.37 1072.98,1037.67 1072.41,1039.12C1072.12,1039.98 1071.26,1041.71 1071.26,1041.71L1068.66,1046.89C1067.51,1049.19 1067.51,1049.77 1066.36,1051.5C1064.92,1054.09 1061.46,1059.28 1060.31,1061.58C1058.87,1061.58 1056.86,1061.29 1055.99,1061.29L1053.4,1061.29C1050.52,1061.29 1048.79,1061.29 1048.79,1063.6C1049.37,1064.46 1058.01,1064.75 1061.18,1064.75C1064.06,1064.46 1068.38,1064.17 1070.97,1064.46L1072.41,1064.46C1076.44,1064.46 1079.9,1064.46 1079.61,1063.02C1079.03,1061 1070.97,1061.29 1064.34,1061.58C1066.65,1058.12 1068.66,1053.8 1069.53,1051.5L1071.83,1046.89C1076.15,1037.96 1080.76,1026.44 1085.08,1016.36L1085.08,1016.65C1085.37,1015.5 1086.23,1013.2 1086.23,1013.2L1088.82,1007.72C1090.55,1004.56 1092.28,1000.52 1094.01,995.915C1094.01,995.627 1094.01,995.051 1094.3,994.763C1094.3,994.475 1094.58,993.899 1094.87,993.611L1094.87,993.899C1098.33,985.259 1102.36,975.467 1104.38,971.147C1130.87,970.283 1161.4,971.147 1188.76,971.147C1192.22,978.059 1194.81,985.259 1196.54,991.307L1197.4,994.475L1197.98,997.355C1199.42,1003.98 1202.58,1011.47 1204.02,1015.79C1207.48,1026.44 1210.07,1032.49 1210.94,1035.08C1214.68,1046.32 1216.98,1050.63 1220.44,1060.43C1211.51,1060.43 1208.34,1061 1207.77,1062.15C1206.62,1064.46 1210.94,1064.17 1214.97,1064.17C1219.58,1063.88 1222.46,1064.17 1229.08,1064.46L1231.1,1064.46C1235.99,1064.46 1242.62,1064.75 1242.9,1062.73C1243.19,1059.85 1238.3,1061 1232.54,1061C1227.64,1052.94 1225.91,1046.32 1223.9,1041.13L1223.9,1041.42L1220.44,1032.2L1219.86,1030.19L1219.86,1030.47L1219,1027.88C1215.83,1019.53 1211.8,1008.01 1211.8,1008.3L1211.8,1008.59C1205.46,987.851 1197.69,964.523 1190.78,943.787C1190.2,942.635 1189.91,940.907 1189.62,939.755C1189.05,938.027 1188.18,935.147 1187.32,933.131L1181.56,918.443L1177.24,903.755C1175.51,897.995 1173.5,891.659 1170.9,884.171L1168.02,874.955C1165.14,868.619 1162.55,862.571 1158.81,850.475C1166.3,850.187 1171.77,848.747 1172.06,847.595C1171.48,846.731 1168.6,847.019 1164.86,846.731L1157.94,846.731C1155.93,846.731 1158.81,846.443 1151.03,846.443C1146.42,846.443 1144.98,848.747 1143.54,853.355C1141.24,863.435 1136.06,879.851 1133.18,888.491ZM1162.55,888.779L1166.3,900.587L1166.3,900.299C1167.74,903.467 1169.46,908.363 1170.62,912.107C1173.78,920.459 1176.66,930.251 1179.26,938.891C1180.12,941.483 1180.7,944.075 1181.56,946.379L1187.32,966.539C1163.99,968.267 1130.87,967.115 1105.82,966.827C1108.7,959.051 1113.3,947.819 1116.47,940.619L1116.47,940.907L1119.64,933.995L1123.1,925.643L1123.1,925.931C1124.82,921.611 1126.26,917.579 1133.46,897.131C1138.07,886.187 1141.53,875.819 1144.98,865.163L1149.59,852.491C1153.62,861.419 1153.62,867.179 1156.22,871.787C1158.52,876.683 1161.4,883.307 1162.55,888.779Z" style="fill:black;fill-rule:nonzero;"/>
                    <path d="M1265.66,848.171C1267.38,848.171 1278.33,848.747 1278.62,846.443C1278.9,844.715 1276.31,844.715 1274.01,844.427L1266.52,844.427C1265.66,844.427 1265.08,844.139 1264.22,844.139L1263.06,844.139C1259.03,843.851 1259.03,844.139 1255,844.139C1252.98,844.139 1249.82,844.427 1248.95,844.427C1246.07,844.427 1243.48,844.427 1243.19,845.579C1242.9,847.595 1247.8,848.747 1254.42,848.459L1261.62,861.707L1265.37,868.907C1267.96,873.803 1270.26,878.987 1273.43,883.883C1274.01,884.747 1274.87,886.763 1275.45,887.339L1275.74,887.627C1276.89,889.643 1278.62,891.371 1278.62,892.523L1278.62,891.947C1285.24,906.347 1292.73,918.155 1299.06,927.947L1302.23,932.555C1305.4,938.603 1308.86,944.075 1311.45,948.395L1321.53,963.947L1323.26,966.827L1327.29,972.587C1327.29,972.875 1327.86,973.451 1329.02,974.603C1330.46,976.619 1331.9,978.347 1332.47,980.363C1333.05,982.667 1333.05,987.563 1332.76,989.579L1332.76,991.307C1332.76,992.171 1332.47,992.747 1332.47,993.323C1333.05,999.947 1333.34,1007.72 1333.34,1014.35C1333.34,1017.23 1333.34,1022.99 1333.05,1026.44C1333.05,1030.19 1333.05,1040.27 1333.34,1041.71C1333.62,1046.32 1333.91,1055.53 1333.91,1059.56C1329.02,1059.56 1320.09,1061.58 1322.39,1063.88L1322.1,1063.88C1322.97,1064.46 1329.59,1064.46 1333.34,1064.17C1334.2,1064.17 1334.78,1063.88 1335.64,1063.88L1337.66,1063.88C1340.25,1063.6 1339.1,1063.6 1340.54,1063.88C1341.11,1063.88 1341.4,1064.17 1341.98,1064.17C1344.57,1064.46 1346.87,1064.46 1348.89,1064.46C1352.92,1064.46 1356.95,1063.88 1356.38,1062.15C1355.51,1060.14 1350.33,1060.14 1347.45,1059.56C1346.3,1059.56 1344.28,1059.28 1343.7,1059.28C1343.7,1053.52 1343.7,1044.3 1343.99,1038.83C1344.28,1034.22 1344.28,1029.9 1344.28,1025.87C1344.28,1022.99 1344.28,1019.82 1343.99,1016.36L1343.99,1013.2C1343.99,1012.04 1343.7,1010.6 1343.7,1009.45C1343.42,1005.71 1343.13,999.947 1343.13,995.915L1343.13,979.211C1346.01,971.435 1360.98,945.227 1367.61,936.011L1367.32,936.011L1369.62,932.267L1373.66,925.931L1384.31,909.803C1392.09,898.859 1396.7,890.795 1405.34,875.819L1406.49,874.091L1406.2,874.379C1407.06,872.651 1409.08,867.755 1410.23,867.467L1413.69,861.707L1416.86,856.811C1418.01,854.507 1419.74,851.339 1421.75,848.459L1428.09,848.171C1431.83,848.171 1434.42,849.035 1433.85,847.019C1433.27,844.427 1426.36,844.715 1422.04,844.715C1419.16,844.715 1416.28,844.427 1413.4,844.715C1410.23,845.003 1403.9,844.715 1404.18,845.867C1404.47,848.747 1411.1,847.883 1416.86,848.459C1407.06,866.891 1396.7,883.595 1386.04,900.011L1384.02,903.179L1365.88,930.251C1358.68,942.635 1351.48,954.443 1340.25,969.131C1336.22,965.387 1334.49,962.507 1333.05,959.915L1331.32,957.323L1329.3,954.731C1328.44,953.579 1327.86,952.427 1326.71,951.275C1324.41,948.107 1319.51,940.331 1315.77,934.283L1315.19,933.131L1307.42,920.171C1301.08,910.955 1295.61,902.315 1292.44,896.555C1289.85,889.355 1286.68,885.323 1283.8,881.003L1277.18,870.347C1274.87,866.315 1268.82,856.235 1265.66,848.171Z" style="fill:black;fill-rule:nonzero;"/>
                </g>
                <g transform="matrix(1.24102,0,0,1.24102,-325.398,-321.224)">
                    <path d="M1142.68,959.627C1154.78,958.187 1163.42,952.715 1170.33,945.803C1174.07,942.059 1178.97,935.723 1181.27,930.539C1182.71,927.083 1183.86,923.627 1184.44,919.595C1184.44,919.307 1184.73,918.155 1184.73,917.291C1185.02,916.139 1185.02,914.699 1185.02,914.123C1186.17,907.787 1186.46,904.331 1186.46,899.147C1186.46,895.403 1185.88,891.083 1184.44,886.475C1180.98,876.107 1172.92,864.011 1164.86,858.251C1161.69,855.371 1155.64,852.203 1153.34,851.339C1143.83,847.019 1131.45,846.155 1120.5,845.579L1118.49,845.579C1116.18,845.579 1113.59,845.291 1111,845.291C1105.24,845.003 1098.33,844.715 1092.86,844.715C1088.82,844.715 1083.93,845.003 1080.18,845.291L1067.51,845.291C1058.3,845.291 1049.94,845.291 1050.23,846.731C1050.52,848.459 1053.4,848.459 1056.28,848.459C1057.14,848.459 1058.3,848.747 1059.74,848.747L1063.77,848.747L1064.92,880.427C1065.78,896.843 1066.65,915.563 1066.65,931.403C1066.65,933.707 1066.36,936.011 1066.36,938.315L1066.36,945.227C1065.78,961.355 1065.5,977.483 1065.5,993.323C1065.5,1003.4 1066.07,1012.91 1066.65,1022.12C1066.65,1024.71 1066.94,1027.6 1067.22,1030.19C1067.51,1035.95 1067.8,1042 1067.8,1048.04C1067.8,1051.79 1067.8,1057.26 1067.51,1061.29C1060.6,1061.29 1054.84,1061.87 1055.42,1063.31C1056.28,1065.32 1058.87,1065.32 1063.19,1065.32L1072.12,1065.32C1073.56,1065.32 1073.85,1065.61 1075.29,1065.61L1079.61,1065.61C1085.66,1065.61 1090.55,1065.32 1091.13,1063.31C1091.42,1061.58 1088.82,1062.44 1085.08,1061.87C1084.79,1061.87 1083.93,1061.58 1083.64,1061.58C1082.78,1061.58 1081.62,1061.29 1080.76,1061.29L1078.17,1061.29C1078.17,1058.41 1078.46,1052.94 1078.46,1050.06C1078.46,1040.56 1077.59,1031.05 1077.02,1021.55L1076.44,1015.5C1075.86,1010.03 1075.58,1003.98 1075.58,998.795C1075.58,993.035 1075.58,987.851 1075.86,982.091C1076.15,976.619 1076.44,967.403 1076.44,961.067L1086.52,961.067L1093.43,961.355C1100.06,961.355 1117.05,960.779 1118.49,961.643C1123.96,964.811 1125.11,967.115 1125.11,967.115L1125.69,967.979C1126.55,969.131 1127.99,971.147 1128.86,972.875L1128.86,972.587C1132.02,980.363 1138.36,989.867 1141.24,995.339C1145.56,1003.12 1149.02,1010.89 1153.91,1018.09C1153.91,1018.38 1154.2,1018.96 1154.49,1019.24C1154.2,1020.39 1155.35,1020.68 1156.22,1021.55L1157.08,1022.99L1156.79,1022.99C1159.1,1025.87 1160.82,1028.75 1161.98,1029.9C1210.36,1098.73 1239.16,1123.21 1268.25,1136.46L1267.96,1136.46C1273.43,1138.48 1280.34,1139.63 1285.53,1139.63C1311.45,1139.63 1337.94,1119.18 1340.82,1090.38C1341.69,1083.47 1339.67,1072.24 1337.08,1066.19C1331.61,1054.38 1320.66,1048.04 1310.58,1048.04C1300.22,1048.04 1292.73,1050.06 1286.1,1056.68C1281.21,1061.58 1278.04,1069.07 1278.33,1073.39C1279.19,1084.62 1281.21,1087.5 1290.14,1087.5C1294.17,1087.5 1296.76,1086.63 1298.49,1082.6C1299.35,1077.71 1296.18,1075.12 1293.59,1074.25C1291.86,1073.67 1288.7,1075.4 1282.65,1080.88C1282.36,1071.08 1284.09,1065.32 1287.26,1061.58C1292.44,1055.82 1300.79,1050.92 1309.43,1050.92C1314.33,1050.92 1319.8,1052.94 1323.83,1055.82C1330.74,1061.58 1332.47,1069.64 1333.62,1078.86C1333.62,1079.72 1333.91,1080.88 1334.2,1082.03C1335.06,1087.21 1333.34,1092.97 1331.9,1097.29C1324.7,1116.59 1305.69,1130.12 1287.54,1130.12C1284.66,1130.12 1280.92,1130.12 1278.33,1129.55C1248.38,1123.79 1210.07,1077.42 1184.73,1044.88C1177.53,1035.66 1168.31,1021.26 1162.55,1011.75L1162.84,1011.75L1155.35,999.083C1154.49,997.643 1151.32,991.883 1151.9,993.035C1147.86,986.987 1142.39,978.059 1140.95,975.179L1140.38,973.451L1140.38,974.027L1138.36,970.571L1138.65,970.571L1132.89,961.067L1141.53,959.915C1141.82,959.915 1142.39,959.627 1142.68,959.627ZM1076.44,957.323C1076.73,951.563 1076.73,943.211 1076.73,936.875C1076.73,926.795 1076.44,916.715 1076.15,906.347C1076.15,901.451 1075.86,896.555 1075.86,891.371C1075.58,878.699 1075.29,858.539 1075.29,848.171C1079.61,847.883 1088.54,847.595 1093.14,847.595C1114.74,847.595 1141.53,850.475 1154.49,859.403C1160.82,864.299 1169.18,873.803 1172.63,883.883C1174.65,888.779 1174.94,893.099 1175.22,898.571C1175.22,899.435 1175.51,900.011 1175.51,900.587L1175.51,902.027L1175.8,903.755C1175.51,904.907 1175.51,906.059 1175.51,907.211C1175.51,908.363 1175.22,909.515 1175.22,910.955L1174.65,915.851C1174.36,917.867 1172.92,921.899 1170.62,929.099C1169.18,931.979 1164.28,940.043 1161.11,942.923C1147.29,955.595 1129.14,957.323 1097.75,957.323L1076.44,957.323Z" style="fill:black;fill-rule:nonzero;"/>
                </g>
                <g transform="matrix(1.24102,0,0,1.24102,-559.513,-321.224)">
                    <path d="M1199.13,861.131L1189.05,856.523L1184.44,854.795C1175.22,850.763 1165.43,846.731 1153.34,846.443C1138.65,846.155 1124.82,850.475 1112.15,857.963C1105.82,861.707 1103.51,864.299 1098.62,868.331C1085.66,879.563 1080.47,888.203 1072.98,906.059C1069.24,915.275 1066.94,927.371 1064.63,939.467C1063.48,946.955 1062.62,956.459 1062.62,963.371C1062.62,977.483 1064.63,990.443 1068.66,1001.68L1069.82,1004.56L1069.82,1004.27C1070.1,1004.84 1070.39,1005.42 1070.39,1006C1070.39,1006.86 1070.68,1007.72 1073.56,1012.91C1075,1016.94 1083.06,1031.91 1093.43,1041.71C1103.51,1050.35 1108.41,1054.67 1118.78,1058.99C1119.35,1059.28 1119.93,1059.56 1120.5,1059.56C1125.4,1061.29 1130.01,1063.31 1141.53,1064.75C1143.83,1065.04 1146.42,1065.04 1149.02,1065.04C1151.03,1065.04 1152.76,1065.32 1154.2,1065.32C1171.19,1066.47 1182.71,1060.14 1193.37,1052.65C1195.96,1050.63 1200.57,1046.32 1201.14,1044.01L1201.14,1037.96L1201.14,1036.24C1201.14,1032.49 1200.86,1027.6 1201.14,1024.14C1201.43,1018.09 1201.14,1012.91 1201.14,1007.44C1201.14,1000.24 1201.43,992.747 1201.14,985.547C1200.86,976.619 1200.86,963.659 1200.86,954.731C1206.33,955.307 1214.97,954.155 1214.1,950.987C1212.66,949.835 1208.06,949.547 1203.74,949.547L1202.3,949.547C1195.67,949.547 1192.5,948.683 1186.46,948.971L1184.15,948.971C1179.26,948.971 1176.38,949.835 1176.09,952.139C1175.8,954.443 1181.27,954.731 1187.9,955.019L1190.49,955.019C1191.06,964.235 1191.35,976.907 1191.35,986.987L1191.35,998.795C1191.35,1003.12 1191.06,1007.15 1191.06,1011.18L1191.35,1030.76C1191.35,1034.51 1191.35,1039.12 1191.64,1043.15C1191.64,1044.01 1191.35,1044.88 1191.35,1045.74L1191.35,1048.62C1184.15,1056.97 1170.04,1062.15 1156.5,1062.15C1150.17,1062.15 1144.7,1061.58 1139.8,1060.71C1127.13,1057.55 1115.9,1054.38 1107.26,1047.76C1101.21,1042.86 1100.06,1042.86 1094.3,1035.66C1090.55,1031.05 1085.94,1023.27 1083.35,1017.23C1076.73,1002.83 1073.85,976.619 1074.71,958.475C1075.58,947.531 1076.15,935.435 1078.17,924.779C1079.9,915.275 1082.2,908.075 1090.55,891.083C1093.14,886.475 1098.33,877.835 1101.21,874.955C1111,864.587 1125.4,854.795 1143.83,851.051C1146.42,850.475 1150.17,850.475 1153.62,850.475C1161.4,850.475 1168.31,852.203 1174.36,853.931C1178.68,855.371 1181.27,856.811 1184.15,857.963L1183.86,857.963L1189.05,860.267C1193.08,862.283 1197.11,863.723 1199.13,865.739C1199.13,867.755 1199.42,870.059 1199.42,872.363C1199.42,873.515 1199.42,875.819 1199.7,876.971L1199.7,876.683C1199.99,877.547 1200.28,877.835 1201.14,877.835C1203.45,876.683 1203.16,872.363 1202.87,868.331L1202.87,865.451C1203.16,861.995 1203.16,850.475 1202.01,850.475C1200.57,850.187 1199.13,852.203 1199.13,855.947L1199.13,861.131Z" style="fill:black;fill-rule:nonzero;"/>
                </g>
            </g>
            <g>
                <g transform="matrix(0.611794,0,0,0.611794,289.817,40.156)">
                    <path d="M1084.79,849.899C1091.7,851.051 1098.9,850.187 1099.48,847.307C1098.62,846.443 1093.14,846.155 1085.94,846.155L1082.78,846.155C1079.61,846.155 1079.61,845.867 1077.59,845.867L1062.04,845.867C1060.89,846.155 1059.74,846.443 1059.74,846.731C1060.31,849.323 1066.07,849.899 1072.7,850.475C1072.98,861.131 1072.98,876.107 1072.98,889.355L1072.98,959.339C1072.98,972.875 1072.7,986.699 1072.41,999.947C1072.12,1010.89 1072.12,1021.84 1072.12,1032.78C1072.12,1041.13 1072.12,1052.94 1072.41,1061.29C1067.22,1060.14 1060.89,1060.71 1060.89,1062.44C1060.6,1064.46 1062.9,1064.46 1066.07,1064.75L1067.51,1064.75C1071.26,1065.04 1072.98,1065.04 1076.15,1064.75C1077.02,1064.75 1077.88,1064.46 1078.74,1064.46C1082.49,1064.17 1083.64,1064.17 1087.38,1064.17L1119.06,1064.17C1137.78,1064.17 1156.79,1064.75 1173.21,1063.88L1175.22,1063.88C1176.09,1063.88 1177.53,1063.6 1178.39,1063.6C1179.83,1063.88 1181.85,1063.88 1182.71,1063.6C1183.29,1061.87 1183.29,1057.55 1183,1053.52L1183,1052.36C1183,1049.19 1182.14,1045.74 1180.12,1045.16C1178.97,1046.03 1178.68,1051.79 1179.26,1059.85C1174.65,1060.14 1165.72,1060.43 1159.1,1060.43L1133.75,1060.71C1128.28,1060.71 1123.1,1060.71 1118.78,1060.14C1113.59,1060.43 1107.83,1060.14 1103.22,1060.14C1098.04,1060.14 1092.28,1060.71 1083.35,1059.28C1083.64,1050.92 1083.64,1040.27 1083.64,1031.91L1083.64,1021.84C1083.35,1018.09 1083.35,1012.62 1083.35,1009.16C1083.35,1005.13 1083.35,1000.52 1083.64,996.203L1083.64,970.283C1083.93,967.115 1083.93,962.795 1083.93,959.627L1083.93,939.467C1083.93,938.315 1084.22,937.163 1084.22,936.011C1084.5,931.403 1084.22,926.507 1084.22,921.899L1084.22,914.987C1084.22,912.971 1083.93,910.667 1083.93,908.939L1083.93,903.467C1083.93,898.571 1084.22,893.675 1084.5,888.203L1084.5,886.763L1084.79,849.899Z" style="fill:black;fill-rule:nonzero;"/>
                    <path d="M1291.86,888.491C1291.29,890.507 1290.71,892.235 1288.41,897.995L1288.41,897.707C1287.26,901.163 1285.53,904.619 1284.38,908.075C1283.22,912.107 1282.07,914.411 1281.21,916.427L1281.21,916.139L1280.06,919.307L1273.43,934.283L1266.81,949.547L1265.08,953.867C1265.08,954.155 1264.5,955.019 1264.5,955.307C1264.22,955.595 1262.78,959.339 1261.05,964.523L1259.61,969.131L1258.46,972.011C1255.58,980.075 1251.83,989.867 1248.66,997.643C1244.06,1006.28 1237.43,1022.99 1233.69,1032.78C1232.82,1035.37 1231.67,1037.67 1231.1,1039.12C1230.81,1039.98 1229.94,1041.71 1229.94,1041.71L1227.35,1046.89C1226.2,1049.19 1226.2,1049.77 1225.05,1051.5C1223.61,1054.09 1220.15,1059.28 1219,1061.58C1217.56,1061.58 1215.54,1061.29 1214.68,1061.29L1212.09,1061.29C1209.21,1061.29 1207.48,1061.29 1207.48,1063.6C1208.06,1064.46 1216.7,1064.75 1219.86,1064.75C1222.74,1064.46 1227.06,1064.17 1229.66,1064.46L1231.1,1064.46C1235.13,1064.46 1238.58,1064.46 1238.3,1063.02C1237.72,1061 1229.66,1061.29 1223.03,1061.58C1225.34,1058.12 1227.35,1053.8 1228.22,1051.5L1230.52,1046.89C1234.84,1037.96 1239.45,1026.44 1243.77,1016.36L1243.77,1016.65C1244.06,1015.5 1244.92,1013.2 1244.92,1013.2L1247.51,1007.72C1249.24,1004.56 1250.97,1000.52 1252.7,995.915C1252.7,995.627 1252.7,995.051 1252.98,994.763C1252.98,994.475 1253.27,993.899 1253.56,993.611L1253.56,993.899C1257.02,985.259 1261.05,975.467 1263.06,971.147C1289.56,970.283 1320.09,971.147 1347.45,971.147C1350.9,978.059 1353.5,985.259 1355.22,991.307L1356.09,994.475L1356.66,997.355C1358.1,1003.98 1361.27,1011.47 1362.71,1015.79C1366.17,1026.44 1368.76,1032.49 1369.62,1035.08C1373.37,1046.32 1375.67,1050.63 1379.13,1060.43C1370.2,1060.43 1367.03,1061 1366.46,1062.15C1365.3,1064.46 1369.62,1064.17 1373.66,1064.17C1378.26,1063.88 1381.14,1064.17 1387.77,1064.46L1389.78,1064.46C1394.68,1064.46 1401.3,1064.75 1401.59,1062.73C1401.88,1059.85 1396.98,1061 1391.22,1061C1386.33,1052.94 1384.6,1046.32 1382.58,1041.13L1382.58,1041.42L1379.13,1032.2L1378.55,1030.19L1378.55,1030.47L1377.69,1027.88C1374.52,1019.53 1370.49,1008.01 1370.49,1008.3L1370.49,1008.59C1364.15,987.851 1356.38,964.523 1349.46,943.787C1348.89,942.635 1348.6,940.907 1348.31,939.755C1347.74,938.027 1346.87,935.147 1346.01,933.131L1340.25,918.443L1335.93,903.755C1334.2,897.995 1332.18,891.659 1329.59,884.171L1326.71,874.955C1323.83,868.619 1321.24,862.571 1317.5,850.475C1324.98,850.187 1330.46,848.747 1330.74,847.595C1330.17,846.731 1327.29,846.731 1323.54,846.731L1316.34,846.731L1309.72,846.443C1305.11,846.443 1303.67,848.747 1302.23,853.355C1299.93,863.435 1294.74,879.851 1291.86,888.491ZM1321.24,888.779L1324.98,900.587L1324.98,900.299C1326.42,903.467 1328.15,908.363 1329.3,912.107C1332.47,920.459 1335.35,930.251 1337.94,938.891C1338.81,941.483 1339.38,944.075 1340.25,946.379L1346.01,966.539C1322.68,968.267 1289.56,967.115 1264.5,966.827C1267.38,959.051 1271.99,947.819 1275.16,940.619L1275.16,940.907L1278.33,933.995L1281.78,925.643L1281.78,925.931C1283.51,921.611 1284.95,917.579 1292.15,897.131C1296.76,886.187 1300.22,875.819 1303.67,865.163L1308.28,852.491C1312.31,861.419 1312.31,867.179 1314.9,871.787C1317.21,876.683 1320.09,883.307 1321.24,888.779Z" style="fill:black;fill-rule:nonzero;"/>
                    <path d="M1651.58,888.491C1651,890.507 1650.42,892.235 1648.12,897.995L1648.12,897.707C1646.97,901.163 1645.24,904.619 1644.09,908.075C1642.94,912.107 1641.78,914.411 1640.92,916.427L1640.92,916.139L1639.77,919.307L1633.14,934.283L1626.52,949.547L1624.79,953.867C1624.79,954.155 1624.22,955.019 1624.22,955.307C1623.93,955.595 1622.49,959.339 1620.76,964.523L1619.32,969.131L1618.17,972.011C1615.29,980.075 1611.54,989.867 1608.38,997.643C1603.77,1006.28 1597.14,1022.99 1593.4,1032.78C1592.54,1035.37 1591.38,1037.67 1590.81,1039.12C1590.52,1039.98 1589.66,1041.71 1589.66,1041.71L1587.06,1046.89C1585.91,1049.19 1585.91,1049.77 1584.76,1051.5C1583.32,1054.09 1579.86,1059.28 1578.71,1061.58C1577.27,1061.58 1575.26,1061.29 1574.39,1061.29L1571.8,1061.29C1568.92,1061.29 1567.19,1061.29 1567.19,1063.6C1567.77,1064.46 1576.41,1064.75 1579.58,1064.75C1582.46,1064.46 1586.78,1064.17 1589.37,1064.46L1590.81,1064.46C1594.84,1064.46 1598.3,1064.46 1598.01,1063.02C1597.43,1061 1589.37,1061.29 1582.74,1061.58C1585.05,1058.12 1587.06,1053.8 1587.93,1051.5L1590.23,1046.89C1594.55,1037.96 1599.16,1026.44 1603.48,1016.36L1603.48,1016.65C1603.77,1015.5 1604.63,1013.2 1604.63,1013.2L1607.22,1007.72C1608.95,1004.56 1610.68,1000.52 1612.41,995.915C1612.41,995.627 1612.41,995.051 1612.7,994.763C1612.7,994.475 1612.98,993.899 1613.27,993.611L1613.27,993.899C1616.73,985.259 1620.76,975.467 1622.78,971.147C1649.27,970.283 1679.8,971.147 1707.16,971.147C1710.62,978.059 1713.21,985.259 1714.94,991.307L1715.8,994.475L1716.38,997.355C1717.82,1003.98 1720.98,1011.47 1722.42,1015.79C1725.88,1026.44 1728.47,1032.49 1729.34,1035.08C1733.08,1046.32 1735.38,1050.63 1738.84,1060.43C1729.91,1060.43 1726.74,1061 1726.17,1062.15C1725.02,1064.46 1729.34,1064.17 1733.37,1064.17C1737.98,1063.88 1740.86,1064.17 1747.48,1064.46L1749.5,1064.46C1754.39,1064.46 1761.02,1064.75 1761.3,1062.73C1761.59,1059.85 1756.7,1061 1750.94,1061C1746.04,1052.94 1744.31,1046.32 1742.3,1041.13L1742.3,1041.42L1738.84,1032.2L1738.26,1030.19L1738.26,1030.47L1737.4,1027.88C1734.23,1019.53 1730.2,1008.01 1730.2,1008.3L1730.2,1008.59C1723.86,987.851 1716.09,964.523 1709.18,943.787C1708.6,942.635 1708.31,940.907 1708.02,939.755C1707.45,938.027 1706.58,935.147 1705.72,933.131L1699.96,918.443L1695.64,903.755C1693.91,897.995 1691.9,891.659 1689.3,884.171L1686.42,874.955C1683.54,868.619 1680.95,862.571 1677.21,850.475C1684.7,850.187 1690.17,848.747 1690.46,847.595C1689.88,846.731 1687,846.731 1683.26,846.731L1676.06,846.731L1669.43,846.443C1664.82,846.443 1663.38,848.747 1661.94,853.355C1659.64,863.435 1654.46,879.851 1651.58,888.491ZM1680.95,888.779L1684.7,900.587L1684.7,900.299C1686.14,903.467 1687.86,908.363 1689.02,912.107C1692.18,920.459 1695.06,930.251 1697.66,938.891C1698.52,941.483 1699.1,944.075 1699.96,946.379L1705.72,966.539C1682.39,968.267 1649.27,967.115 1624.22,966.827C1627.1,959.051 1631.7,947.819 1634.87,940.619L1634.87,940.907L1638.04,933.995L1641.5,925.643L1641.5,925.931C1643.22,921.611 1644.66,917.579 1651.86,897.131C1656.47,886.187 1659.93,875.819 1663.38,865.163L1667.99,852.491C1672.02,861.419 1672.02,867.179 1674.62,871.787C1676.92,876.683 1679.8,883.307 1680.95,888.779Z" style="fill:black;fill-rule:nonzero;"/>
                    <path d="M1812.86,848.747C1812.86,857.963 1813.43,871.499 1813.72,881.003C1814.01,886.187 1814.3,894.539 1814.3,899.147C1814.58,908.075 1814.87,921.611 1814.87,930.539L1814.87,941.771C1814.58,948.395 1814.87,954.731 1815.16,961.067C1815.16,963.371 1815.45,965.675 1815.45,967.979C1815.74,973.739 1816.02,982.091 1816.02,987.851C1816.02,996.491 1816.02,1005.42 1815.74,1014.35C1815.74,1016.36 1815.45,1020.39 1815.45,1022.99L1815.45,1031.34C1815.45,1039.69 1815.74,1051.79 1816.02,1060.43C1815.45,1060.43 1813.43,1060.71 1812.28,1060.71L1808.54,1060.71C1805.66,1061 1803.93,1060.14 1803.64,1061.87C1803.35,1065.04 1807.67,1065.04 1813.14,1065.04L1817.46,1065.04C1818.04,1065.04 1818.62,1065.32 1819.19,1065.32L1820.92,1065.32C1826.1,1065.61 1831.58,1065.9 1831.86,1063.6C1831.86,1061.58 1827.54,1061 1819.77,1061C1819.19,1054.09 1818.9,1045.45 1818.9,1036.24L1818.9,1028.17C1818.9,1025.58 1819.19,1022.7 1819.19,1019.82C1819.48,1012.91 1819.48,1006 1819.48,999.083L1819.48,991.019C1819.48,988.139 1819.19,985.259 1819.19,982.091C1818.9,977.483 1818.9,969.419 1818.9,964.811L1818.9,954.443C1818.9,946.091 1818.62,937.739 1818.33,928.811C1818.33,926.507 1818.04,924.491 1818.04,922.475L1818.04,906.635C1817.18,898.859 1816.89,891.947 1816.89,887.627C1816.89,884.459 1817.18,881.579 1817.18,879.275C1817.18,878.123 1817.46,875.531 1817.46,872.939L1817.18,861.131L1839.35,895.691L1839.93,896.555L1839.64,896.555C1839.93,897.131 1839.06,896.555 1841.66,899.147L1843.1,900.587L1842.81,900.587L1845.11,903.467L1845.11,903.179C1845.11,903.179 1850.87,911.531 1854.04,916.427L1858.07,922.763L1864.7,932.843C1866.42,935.147 1868.15,938.603 1869.88,940.907L1884.28,960.779L1884.28,960.491C1887.74,964.235 1891.19,968.555 1894.07,972.875L1894.07,972.587C1896.09,974.891 1897.24,977.195 1898.1,978.347C1898.39,979.211 1898.68,979.499 1898.68,979.787C1898.68,979.211 1899.54,978.347 1900.7,977.483C1901.56,976.331 1903,973.739 1903.58,972.587L1905.59,969.419L1919.42,950.411L1940.44,916.715C1948.5,904.043 1953.98,893.675 1959.74,882.731L1974.42,856.811C1974.71,863.435 1975,872.075 1975,876.107C1975,882.443 1974.71,886.763 1974.42,890.507C1974.14,892.235 1973.85,894.539 1973.85,895.979C1973.85,897.995 1973.85,900.587 1973.56,902.603C1972.98,910.091 1972.12,919.595 1972.98,927.083C1973.27,933.707 1972.98,943.787 1972.7,950.987C1972.7,952.139 1972.12,954.155 1972.12,955.595L1972.12,960.203C1972.12,963.947 1972.7,967.691 1972.98,971.723C1973.27,976.331 1973.56,980.363 1973.27,984.971C1973.27,985.835 1972.98,986.699 1972.98,987.275L1972.98,989.291C1972.7,992.459 1972.12,995.915 1972.12,999.947L1972.12,1009.45C1972.12,1016.94 1972.12,1025 1972.7,1032.2C1972.7,1035.37 1972.7,1037.96 1972.98,1040.56C1973.27,1043.43 1973.27,1046.03 1973.27,1049.48C1973.27,1052.08 1973.27,1057.26 1972.98,1060.43C1968.38,1061.29 1966.65,1061 1964.92,1061C1962.04,1061.29 1960.31,1061 1960.02,1063.6C1959.74,1065.9 1963.77,1065.32 1968.38,1065.04L1985.37,1065.04C1991.99,1065.04 1995.45,1065.04 1994.01,1061.87C1994.01,1061 1989.98,1061 1983.35,1061.29C1982.78,1052.36 1982.2,1038.83 1982.2,1029.32C1982.2,1023.27 1982.2,1015.5 1982.78,1008.88L1982.78,1003.12C1982.78,1000.52 1983.06,998.219 1983.06,996.491C1983.06,990.443 1983.06,984.395 1983.35,978.347C1983.93,967.403 1983.93,955.883 1983.93,944.651C1983.93,935.723 1983.93,926.795 1984.22,918.155C1984.5,912.683 1984.79,907.499 1984.5,902.027L1984.5,883.883C1984.5,880.427 1984.22,876.683 1984.5,873.227C1985.08,866.891 1985.66,858.251 1985.37,849.611L1992.28,849.611C1994.58,849.611 1997.18,849.611 1997.46,848.171C1998.04,844.139 1990.84,845.003 1982.78,845.291L1981.34,845.291C1981.34,845.291 1975.29,844.715 1971.54,852.779L1925.46,932.843L1901.27,965.963C1890.62,953.579 1883.7,941.771 1876.22,930.539L1873.05,925.931L1872.76,925.643C1870.74,923.627 1869.59,921.611 1868.73,920.171L1862.97,911.243L1856.92,902.315C1843.38,884.747 1829.27,861.419 1825.53,854.507C1821.21,845.003 1819.19,844.427 1815.45,844.427L1813.72,844.427C1807.1,844.427 1800.47,843.563 1801.05,846.731C1801.34,848.171 1804.5,849.035 1809.98,848.747L1812.86,848.747Z" style="fill:black;fill-rule:nonzero;"/>
                </g>
                <g transform="matrix(0.611794,0,0,0.611794,160.805,39.2497)">
                    <path d="M1204.36,1017.5C1209.26,1031.91 1209.84,1032.48 1210.7,1035.08C1214.44,1046.31 1216.75,1050.63 1220.21,1060.43C1211.28,1060.43 1208.11,1061 1207.53,1062.15C1206.38,1064.46 1210.7,1064.17 1214.73,1064.17C1219.34,1063.88 1222.22,1064.17 1228.85,1064.46L1230.87,1064.46C1235.76,1064.46 1242.39,1064.75 1242.68,1062.73C1242.97,1059.85 1238.07,1061 1232.31,1061C1227.41,1052.94 1225.68,1046.31 1223.66,1041.12L1223.66,1041.41L1220.21,1032.19L1219.63,1030.18L1219.63,1030.46L1218.77,1027.87C1215.6,1019.52 1211.56,1007.99 1211.56,1008.28L1211.56,1008.57C1205.23,987.828 1197.45,964.493 1190.53,943.751C1189.96,942.599 1189.67,940.87 1189.38,939.718C1188.81,937.989 1187.94,935.108 1187.08,933.092L1181.32,918.399L1176.99,903.707C1175.27,897.945 1173.25,891.607 1170.66,884.117L1167.78,874.898C1164.89,868.56 1162.3,862.51 1158.56,850.411C1166.05,850.123 1171.52,848.682 1171.81,847.53C1171.23,846.665 1168.35,846.665 1164.61,846.665L1158.27,846.377L1156.54,846.377L1150.78,846.377C1146.17,846.377 1144.73,848.682 1143.29,853.291C1140.98,863.375 1135.8,879.796 1132.92,888.438C1132.34,890.455 1131.76,892.183 1129.46,897.945L1129.46,897.657C1128.31,901.114 1126.58,904.571 1125.43,908.028C1124.27,912.061 1123.12,914.366 1122.26,916.383L1122.26,916.095L1121.11,919.263L1114.48,934.244L1107.85,949.513L1106.12,953.834C1106.12,954.122 1105.55,954.986 1105.55,955.274C1105.26,955.562 1103.82,959.308 1102.09,964.493L1100.65,969.103L1099.5,971.983L1096.91,978.609L1095.18,978.321C1089.41,977.745 1084.52,977.169 1078.76,974.288C1064.93,967.374 1058.01,958.155 1058.01,950.089C1058.01,946.632 1059.17,943.175 1061.47,939.718C1064.64,935.108 1070.11,931.363 1075.88,931.363C1081.06,931.363 1087.4,934.82 1092.87,944.615C1093.45,946.056 1097.77,944.327 1098.06,943.175C1098.35,941.158 1097.48,938.565 1096.62,936.261C1092.87,931.075 1085.67,928.194 1079.04,928.194C1071.55,928.194 1064.64,931.075 1060.03,935.684C1056.29,939.142 1054.27,943.463 1054.27,948.36C1054.27,954.122 1057.15,960.748 1063.78,967.95C1070.4,975.729 1082.79,980.626 1095.46,982.643L1089.7,997.623C1085.09,1006.27 1078.47,1022.98 1074.72,1032.77C1073.86,1035.36 1072.71,1037.67 1072.13,1039.11C1071.84,1039.97 1070.98,1041.7 1070.98,1041.7L1068.38,1046.89C1067.23,1049.19 1067.23,1049.77 1066.08,1051.5C1064.64,1054.09 1061.18,1059.27 1060.03,1061.58C1058.59,1061.58 1056.57,1061.29 1055.71,1061.29L1053.12,1061.29C1050.24,1061.29 1048.51,1061.87 1048.51,1064.17C1049.08,1065.04 1057.73,1065.32 1060.89,1065.32C1063.78,1065.04 1068.1,1064.75 1070.69,1065.04L1072.13,1065.04C1076.16,1065.04 1079.62,1065.04 1079.33,1063.6C1078.76,1061.58 1070.69,1061.29 1064.06,1061.58C1066.37,1058.12 1068.38,1053.8 1069.25,1051.5L1071.55,1046.89C1075.88,1037.95 1080.49,1026.43 1084.81,1016.35L1084.81,1016.64C1085.09,1015.49 1085.96,1013.18 1085.96,1013.18L1088.55,1007.71C1090.28,1004.54 1092.01,1000.5 1093.74,995.895C1093.74,995.607 1093.74,995.03 1094.03,994.742C1094.03,994.454 1094.31,993.878 1094.6,993.59L1094.6,993.878L1098.92,982.931L1109.87,983.795L1138.39,983.507C1168.64,985.235 1187.65,993.014 1203.5,1015.2C1203.5,1015.49 1204.36,1017.21 1204.36,1017.5ZM1162.3,888.726L1166.05,900.538L1166.05,900.25C1167.49,903.419 1169.21,908.316 1170.37,912.061C1173.54,920.416 1176.42,930.211 1179.01,938.853C1179.88,941.446 1180.45,944.039 1181.32,946.344L1187.08,966.51C1187.94,969.391 1188.23,969.103 1188.52,971.119C1191.97,978.033 1194.57,985.235 1196.3,991.285L1197.16,994.454L1197.74,997.335C1198.02,999.064 1199.46,1002.23 1200.04,1003.96C1200.04,1003.96 1196.01,1000.5 1195.14,999.64C1181.6,989.269 1173.54,985.524 1157.69,982.643C1138.97,979.186 1115.63,980.338 1110.73,980.05C1109.29,980.05 1106.7,979.762 1105.84,979.762L1102.95,979.762L1100.36,979.474L1104.11,971.119L1105.55,966.798C1108.43,959.02 1113.04,947.784 1116.21,940.582L1116.21,940.87L1119.38,933.956L1122.83,925.601L1122.83,925.889C1124.56,921.568 1126,917.535 1133.2,897.081C1137.81,886.133 1141.27,875.762 1144.73,865.103L1149.34,852.427C1153.37,861.358 1153.37,867.12 1155.96,871.729C1158.27,876.627 1161.15,883.253 1162.3,888.726Z" style="fill:black;fill-rule:nonzero;"/>
                </g>
                <g transform="matrix(0.611794,0,0,0.611794,503.378,39.2497)">
                    <path d="M1167.78,952.394L1179.59,948.36C1185.06,946.92 1191.11,943.751 1195.14,941.734C1200.04,939.43 1208.39,932.227 1212.43,925.889C1216.75,918.975 1220.5,907.164 1219.63,895.64C1219.06,886.71 1215.02,879.796 1210.7,873.746C1204.94,865.967 1202.35,863.375 1194.57,857.901C1190.53,855.02 1187.37,853.58 1180.45,850.987L1174.11,848.682C1173.54,848.682 1170.37,847.818 1165.47,846.954C1157.12,845.513 1150.49,844.937 1136.37,844.937L1129.17,844.937C1121.97,844.937 1117.36,844.937 1111.02,845.225L1108.14,845.225C1102.09,844.937 1095.46,844.937 1095.46,847.242C1095.46,848.106 1097.19,848.106 1100.08,848.106C1100.65,848.106 1101.8,848.394 1103.24,848.394L1108.14,848.394C1107.57,861.07 1107.28,877.779 1107.28,889.879L1107.28,901.978C1107.28,907.452 1107.28,913.214 1107.57,918.399C1107.57,920.992 1107.85,923.585 1107.85,926.178C1108.14,933.092 1108.43,941.734 1108.14,948.648C1108.14,953.546 1107.85,958.731 1107.57,963.629C1107.57,965.646 1107.28,968.814 1107.28,970.543C1107.28,973.424 1106.99,976.593 1106.99,979.474C1106.7,983.507 1106.7,987.828 1106.7,991.573C1080.77,997.623 1061.76,1024.13 1060.89,1043.72C1059.74,1066.19 1077.6,1080.88 1097.48,1085.2C1110.73,1086.93 1121.97,1088.08 1132.63,1088.08C1137.24,1088.08 1141.56,1087.8 1146.75,1087.51C1166.91,1086.07 1205.51,1078.86 1219.63,1048.33C1221.93,1043.14 1224.82,1039.11 1225.68,1034.79C1225.68,1034.79 1225.97,1034.79 1225.97,1034.5C1227.12,1031.33 1228.85,1014.04 1228.85,1007.71C1228.56,994.742 1223.95,982.355 1216.75,974.864C1206.38,963.629 1193.99,958.155 1177.28,953.834L1177.57,953.834L1167.78,952.394ZM1107.28,1013.47L1107.28,1017.21C1107.57,1023.55 1107.85,1032.48 1107.57,1039.11C1107.57,1039.97 1107.28,1040.84 1107.28,1041.41L1107.28,1049.19C1107.57,1051.5 1107.85,1055.82 1106.7,1060.43C1092.87,1059.85 1088.55,1063.6 1098.35,1063.6C1099.5,1063.6 1100.65,1063.88 1101.52,1063.88C1104.68,1064.17 1106.12,1063.88 1108.43,1063.88L1114.48,1063.88C1117.94,1063.6 1126.29,1064.46 1129.46,1063.02C1131.19,1062.15 1130.04,1060.71 1128.88,1061C1125.71,1059.56 1120.82,1060.43 1117.94,1060.43C1117.36,1053.8 1117.07,1043.72 1117.07,1035.36L1117.07,1027.3C1117.07,1024.41 1117.36,1021.53 1117.36,1018.37C1117.36,1015.49 1117.36,1011.45 1117.65,1008.57C1117.65,1005.98 1117.36,1002.81 1117.36,1000.22L1117.36,994.742C1122.55,995.03 1128.31,995.03 1130.04,995.607C1136.37,998.487 1141.85,1010.88 1139.25,1016.64L1139.25,1016.35C1138.1,1020.38 1137.53,1024.13 1142.71,1027.3C1145.02,1028.74 1148.47,1024.7 1149.34,1022.4C1152.22,1012.03 1144.73,998.776 1135.51,993.878L1135.8,993.878C1132.34,992.438 1126.29,990.997 1118.8,990.421C1118.8,990.421 1118.22,990.709 1117.36,990.709L1117.36,989.845C1117.36,988.404 1117.07,986.676 1117.07,985.235C1116.78,980.914 1117.07,977.457 1117.07,973.424C1117.07,968.814 1117.07,963.053 1117.94,954.698C1122.26,954.698 1127.15,954.41 1130.32,954.41L1137.24,954.41C1142.13,954.41 1150.78,954.41 1157.69,955.274C1173.83,957.579 1179.59,958.443 1189.67,963.341C1192.55,964.781 1200.04,968.526 1201.77,970.543L1206.67,975.441C1210.7,980.626 1212.72,982.931 1214.73,990.133L1215.02,991.861L1215.6,993.59C1215.89,995.03 1216.46,996.183 1216.46,997.047L1216.75,1010.01C1216.75,1014.33 1216.46,1021.53 1215.89,1025.57C1214.73,1035.08 1211.28,1046.6 1202.63,1055.82C1190.53,1068.78 1169.79,1080.02 1128.31,1082.61C1127.15,1082.61 1126,1082.9 1125.14,1082.9L1117.07,1082.9C1082.5,1082.9 1065.79,1070.51 1064.93,1044.29C1064.64,1032.48 1072.71,1011.74 1094.6,999.64L1098.92,997.911L1106.99,995.895L1106.99,1009.15C1106.99,1010.59 1107.28,1012.03 1107.28,1013.47ZM1145.02,950.953C1138.97,951.529 1135.8,951.241 1132.92,951.241L1117.36,951.241C1117.94,944.327 1118.22,935.973 1118.22,927.906L1118.22,916.959C1118.22,913.214 1117.94,908.892 1117.94,904.859C1117.36,896.793 1117.36,884.981 1117.36,877.203C1117.36,867.696 1117.07,859.629 1118.51,848.394L1132.92,848.394C1148.18,847.53 1162.59,850.411 1172.67,854.444C1183.62,858.477 1191.97,864.815 1198.6,871.441C1199.18,872.305 1200.62,873.746 1201.19,874.322L1205.51,880.948C1208.39,885.845 1209.55,892.471 1209.55,897.369C1210.12,913.79 1202.92,925.601 1197.45,930.787L1191.11,935.973C1188.81,938.277 1180.16,942.887 1176.99,944.615C1168.93,948.36 1153.08,950.665 1145.02,950.953Z" style="fill:black;fill-rule:nonzero;"/>
                </g>
                <g transform="matrix(0.611794,0,0,0.611794,898.357,39.2497)">
                    <path d="M1204.36,1017.5C1209.26,1031.91 1209.84,1032.48 1210.7,1035.08C1214.44,1046.31 1216.75,1050.63 1220.21,1060.43C1211.28,1060.43 1208.11,1061 1207.53,1062.15C1206.38,1064.46 1210.7,1064.17 1214.73,1064.17C1219.34,1063.88 1222.22,1064.17 1228.85,1064.46L1230.87,1064.46C1235.76,1064.46 1242.39,1064.75 1242.68,1062.73C1242.97,1059.85 1238.07,1061 1232.31,1061C1227.41,1052.94 1225.68,1046.31 1223.66,1041.12L1223.66,1041.41L1220.21,1032.19L1219.63,1030.18L1219.63,1030.46L1218.77,1027.87C1215.6,1019.52 1211.56,1007.99 1211.56,1008.28L1211.56,1008.57C1205.23,987.828 1197.45,964.493 1190.53,943.751C1189.96,942.599 1189.67,940.87 1189.38,939.718C1188.81,937.989 1187.94,935.108 1187.08,933.092L1181.32,918.399L1176.99,903.707C1175.27,897.945 1173.25,891.607 1170.66,884.117L1167.78,874.898C1164.89,868.56 1162.3,862.51 1158.56,850.411C1166.05,850.123 1171.52,848.682 1171.81,847.53C1171.23,846.665 1168.35,846.665 1164.61,846.665L1158.27,846.377L1156.54,846.377L1150.78,846.377C1146.17,846.377 1144.73,848.682 1143.29,853.291C1140.98,863.375 1135.8,879.796 1132.92,888.438C1132.34,890.455 1131.76,892.183 1129.46,897.945L1129.46,897.657C1128.31,901.114 1126.58,904.571 1125.43,908.028C1124.27,912.061 1123.12,914.366 1122.26,916.383L1122.26,916.095L1121.11,919.263L1114.48,934.244L1107.85,949.513L1106.12,953.834C1106.12,954.122 1105.55,954.986 1105.55,955.274C1105.26,955.562 1103.82,959.308 1102.09,964.493L1100.65,969.103L1099.5,971.983L1096.91,978.609L1095.18,978.321C1089.41,977.745 1084.52,977.169 1078.76,974.288C1064.93,967.374 1058.01,958.155 1058.01,950.089C1058.01,946.632 1059.17,943.175 1061.47,939.718C1064.64,935.108 1070.11,931.363 1075.88,931.363C1081.06,931.363 1087.4,934.82 1092.87,944.615C1093.45,946.056 1097.77,944.327 1098.06,943.175C1098.35,941.158 1097.48,938.565 1096.62,936.261C1092.87,931.075 1085.67,928.194 1079.04,928.194C1071.55,928.194 1064.64,931.075 1060.03,935.684C1056.29,939.142 1054.27,943.463 1054.27,948.36C1054.27,954.122 1057.15,960.748 1063.78,967.95C1070.4,975.729 1082.79,980.626 1095.46,982.643L1089.7,997.623C1085.09,1006.27 1078.47,1022.98 1074.72,1032.77C1073.86,1035.36 1072.71,1037.67 1072.13,1039.11C1071.84,1039.97 1070.98,1041.7 1070.98,1041.7L1068.38,1046.89C1067.23,1049.19 1067.23,1049.77 1066.08,1051.5C1064.64,1054.09 1061.18,1059.27 1060.03,1061.58C1058.59,1061.58 1056.57,1061.29 1055.71,1061.29L1053.12,1061.29C1050.24,1061.29 1048.51,1061.87 1048.51,1064.17C1049.08,1065.04 1057.73,1065.32 1060.89,1065.32C1063.78,1065.04 1068.1,1064.75 1070.69,1065.04L1072.13,1065.04C1076.16,1065.04 1079.62,1065.04 1079.33,1063.6C1078.76,1061.58 1070.69,1061.29 1064.06,1061.58C1066.37,1058.12 1068.38,1053.8 1069.25,1051.5L1071.55,1046.89C1075.88,1037.95 1080.49,1026.43 1084.81,1016.35L1084.81,1016.64C1085.09,1015.49 1085.96,1013.18 1085.96,1013.18L1088.55,1007.71C1090.28,1004.54 1092.01,1000.5 1093.74,995.895C1093.74,995.607 1093.74,995.03 1094.03,994.742C1094.03,994.454 1094.31,993.878 1094.6,993.59L1094.6,993.878L1098.92,982.931L1109.87,983.795L1138.39,983.507C1168.64,985.235 1187.65,993.014 1203.5,1015.2C1203.5,1015.49 1204.36,1017.21 1204.36,1017.5ZM1162.3,888.726L1166.05,900.538L1166.05,900.25C1167.49,903.419 1169.21,908.316 1170.37,912.061C1173.54,920.416 1176.42,930.211 1179.01,938.853C1179.88,941.446 1180.45,944.039 1181.32,946.344L1187.08,966.51C1187.94,969.391 1188.23,969.103 1188.52,971.119C1191.97,978.033 1194.57,985.235 1196.3,991.285L1197.16,994.454L1197.74,997.335C1198.02,999.064 1199.46,1002.23 1200.04,1003.96C1200.04,1003.96 1196.01,1000.5 1195.14,999.64C1181.6,989.269 1173.54,985.524 1157.69,982.643C1138.97,979.186 1115.63,980.338 1110.73,980.05C1109.29,980.05 1106.7,979.762 1105.84,979.762L1102.95,979.762L1100.36,979.474L1104.11,971.119L1105.55,966.798C1108.43,959.02 1113.04,947.784 1116.21,940.582L1116.21,940.87L1119.38,933.956L1122.83,925.601L1122.83,925.889C1124.56,921.568 1126,917.535 1133.2,897.081C1137.81,886.133 1141.27,875.762 1144.73,865.103L1149.34,852.427C1153.37,861.358 1153.37,867.12 1155.96,871.729C1158.27,876.627 1161.15,883.253 1162.3,888.726Z" style="fill:black;fill-rule:nonzero;"/>
                </g>
            </g>
        </g>
    </g>
</svg>
